<?xml version="1.0" encoding="utf-8"?>
<!-- Generator: Adobe Illustrator 21.0.2, SVG Export Plug-In . SVG Version: 6.00 Build 0)  -->
<svg version="1.1" id="Layer_1" xmlns="http://www.w3.org/2000/svg" xmlns:xlink="http://www.w3.org/1999/xlink" x="0px" y="0px"
	 viewBox="0 0 864 864" style="enable-background:new 0 0 864 864;" xml:space="preserve">
<style type="text/css">
	.st0{fill:#C20000;}
</style>
<g>
	<path class="st0" d="M777.2,289.9c-6.5,5.4-2.7,11.8,1.2,15.2l-86.8,18.9c0.3-1.2,0.6-2.4,0.8-3.7c0.6-3.4,1-7.2,0.8-11.1
		c-0.8-18.9-13.8-36.7-29.6-46.6c-8.5-5.3-18.1-8.7-26.2-14.6c-15.6-11.4-23.8-31.1-19.7-50.1c1.5-7,4.7-13.7,9.9-18.7
		c2.6-2.5,6.1-4.8,9.9-3.9c3.3,0.8,6.4,4,5.6,7.6c-0.8,3.6-6,6.3-9.3,4.3c-0.5-0.3-0.8-0.5-0.8-0.5c0.1,0-0.9,1.3-0.1,4.1
		c1.8,5.9,8.7,8.8,14.4,8.5c6.7-0.4,13.1-4.2,16.8-9.7c5.8-8.8,5.2-21-0.8-29.6c-3.3-4.7-7.8-8.4-13.2-10.9
		c-5.4-2.5-11.9-3.6-18.3-2.7c-23.7,3.1-35.2,28.8-34.2,50.3c0.2,4,0.7,7.8,1.6,11.6c0.7,3.3-0.8,8.5-1.1,11.8
		c-0.9,9.4-1.7,18.8-2.6,28.2c-1.1,11.6-2.1,23.1-3.2,34.7c-1,10.3-3.6,22-2.7,32.3c-1-1.2-3.1-0.8-4.1,0.4c-1,1.2-1.4,2.8-2,4.2
		c-2.6,5.8-9.4,8.2-14.1,12.4c-2.7,2.5-4.8,5.6-7.3,8.3c-5.9,6.3-14.5,9.9-23,9.9c-9.1,0-17.7,1.9-26.8,3.4
		c-1-4.8-1.3-12.7,0.3-18.8c4.8-9,13.6-22.9,26.1-24.4c14.9-1.9,23.6-1.6,31.5-6c7.8-4.4,10.9-8.3,9-15.7
		c-1.9-7.3,5.2-10.6,0.2-16.4c0,0,4.3-3,4.6-6.9c0.2-3.9-4.6-6.1-4.7-9c-0.1-2.9,5.9-4.5,5.8-9.8c0-4-5.1-6-7.8-8.2
		c-4.1-3.5-8.9-9.1-8.7-14.8c0.1-3.5,1.4-6.8,2.1-10.1c3.4-16.3-4.9-35.8-13.5-49.3c3-6.5,3.3-14.2,0.8-20.9
		c-4.7-12.3-20-19.5-32.2-21.9c-3.7-0.7-7.8-0.1-10.4,2.6c-6.4-2.9-14.3-2.1-20,2.1c-6.2-7.8-19.1-9-26.6-2.4
		c-6-4.6-11.6-4-18.6-3.4c-2.9,0.3-5.6,0.4-8.1,1.9c-1,0.6-5.1,6-5.4,6c-5.1,0-10.1,1.8-14.2,4.7c-0.6,0.4-9.6,9.9-6.2,10.7
		c-4.5-1.1-9.4,0.1-12.9,3.1c-3.5,3-5.5,7.7-5.1,12.2c-8.8,1.6-14.6,12.3-11.1,20.5c-4.8,3.9-7.4,10.2-7.1,16.3
		c0.1,1.6,3.9,15.3,5.7,13.4c-4.8,5.1-1,15.1,6,15.8c-2.8,2.9-3.8,7.4-2.4,11.2c1.4,3.8,5.1,6.6,9.2,6.9
		c-3.4,7.5,3.9,17.3,12.1,16.3c-0.7,5.1,2.8,10.5,7.7,11.9c2.2,0.6,4.6,0.5,6.8,0.9c15.4,2.3,22.7,27.6,10.5,37.5
		c-0.3,0.2-0.5,0.4-0.8,0.6c-2.3-1-4.8-2-7.4-2.9c-43.8-15.2-84.9-81.5-90.9-145.4c-6-63.9-20.2-68.4-31.6-32.9
		c0,0-18.4-19.7-20.7,13.8c0,0-16.6-9.2-12.6,20.6c0,0-22.9-5.5-11.5,23.7c0,0-46.8,37.4,14.6,92.7c0,0-28.5,5.5-35.8,31.2
		c-7.3,25.7-8.4,35.8-23.9,42.9c-15.5,7.1,0.7,19.9,15.8,16.1c0,0-5.8,18.8,15.8,16.1c0,0,2.6,16.5,19,7.3c0,0,0.4,15.8,16.3,5.7
		c0,0,1.5,2,4.4,3.2c-9.7,6.6-16.7,17.9-20.8,38.7c0,0-30.8,23.6-56.4,26.7c0,0-14.4-16.4-41-18.5c-26.7-2.1-34.4-4.7-39.7-13
		c-5.4-8.3-16.2-11.4-24.6-9.1c-8.5,2.3-14.3,16-20.7,21.7c-6.4,5.7-12.5,11.6-18.4,17.7c-3.8,4-7.8,8.2-9.8,13.4
		c-1.7,4.4-1.8,10-1.9,14.8c-0.2,9.4,3.3,18.1,13.2,20.5c10.1,2.5,6.1-8,11.3-11.7c6.4-4.6,14-7.4,20.4-12.1
		c3.3-2.4,6.1-5.4,9.7-7.4c13-7.4,28,6.1,38.4,12.7c27.8,17.6,52,45.7,87.2,42.9c28.5-2.3,76.9-27.7,76.9-27.7s21.5,33.8,35.4,46.9
		c13.8,13.1,29.2,27.7,23.1,36.2c-6.2,8.5-22.3,30-18.5,50.8c3.8,20.8-1.5,42.3-10,48.5c-8.5,6.2-13.1,18.5-4.6,26.2
		c6.5,5.9,16.3,9.5,23.7,14.3c2.4,1.6,4.9,3.2,6.9,5.2c3,3,4.9,6.9,7.7,10c11.3,12.6,22.4,3.6,35.8,5.5c1.9,0.3,4.1,1,5.7,0
		c1.6-1,1.9-3.3,1.2-5c-0.7-1.7-2.1-3.1-3.4-4.4c-13.6-13.6-29.2-33.9-26.4-54.5c1.6-11.9,10.1-25.3,15.8-35.7
		c6.6-12.2,14.1-23.8,22.5-34.8c5.8-7.6,12.2-15.4,13.8-24.8c1-6.2-0.2-12.5-1.4-18.7c-5.5-28-12-56.1-22.9-82.4
		c0,0,42.6-20,68.7-66.2c0,0,44.7,23.5,69.3,21.7c19.5-1.4,58.8-12.3,81.4-19.8l24,44.5c0.5,1.4,1,2.8,1.5,4.2
		c4.3,10.5,11.8,20.5,21.5,26.5c8.8,5.5,20.4,8,30.6,4.9c12-3.5,21.9-14.8,23.2-27.3c1.2-11.4-5.7-24-16.7-27.8
		c-9.2-3.2-25.7,1.9-24,14.3c0.4,3,1.9,3.7,1.8,3.7c0,0,0.1-0.3,0.5-0.8c1.5-2.2,4.9-2.9,7.4-2.3c3.7,0.8,5,4.9,3.6,8.2
		c-1.8,4.1-6.9,5.9-11.1,4.6c-7.7-1.8-14.3-7.2-18.9-13.5c-4.2-5.7-7.5-12.8-8.9-20.4c-1.3-7.6-0.8-15.7,1.5-23.1
		c0.6-1.9,1.3-3.7,2.1-5.5c6.5-1.8,13.3-5.7,20.7-15.1c0,0,4.7-12.1,3.6-22.3c1.5-3.1,2.9-6.3,3.9-9.6c1.3-4,2.2-8.1,2.7-12.3
		c0.9-8.4-0.3-17.1-3.4-24.4c-1.2-2.9-2.6-5.4-4.1-7.8l83.6-18.3c-1.3,4.7-0.9,10.9,5.8,12.6c12.4,3.3,26.3-23.6,26.3-23.6
		S787.1,281.7,777.2,289.9z M603.9,223.2c0.3,0.7,0.6,1.3,0.9,2c4.1,8.7,9.5,16.5,15.7,23.3c3.1,3.4,6.4,6.5,9.9,9.4
		c0.9,0.7,1.7,1.4,2.6,2.1c0.9,0.7,1.9,1.4,2.8,2c2,1.5,3.4,2.3,5.4,3.7c14.6,9.4,24.5,23,26.9,40.4c0.9,6.2,0.6,13.1-2.3,18.8
		c-1.3,2.5-3,5.2-5.7,6.1c-3.9,1.3-8.3,1.8-12.4,2.7c-8,1.7-15.9,3.5-23.9,5.2c-4.1,0.9-8.3,2-12.5,2.7c-0.4,0.1-7.6,0.5-7.7,0.5
		c1.7-2.2,0.4-5.5-1.2-7.8c-2.2-3.1-4.8-6.2-8.1-8.1c1.2-7.8,1.6-16.1,2.3-24c1.6-17.1,3.2-34.1,4.7-51.2c0.6-6.7,1.2-13.3,1.9-20
		C603.4,229.3,604.6,224.8,603.9,223.2z M552.4,398.2c-3.1-0.5-13.9-3.2-15.1-6.6c-1.2-3.5,9.2-6.9,12.2-8.1
		c5-2.1,10.1-4.1,15.1-6.2c3.2-1.3,6.4-2.6,9.8-3.2c2.4-0.4,4.9-0.4,7.3-0.4c6.9-0.1,13.4,0.6,18.9-4.3c0,0,12.6,23.3,12.6,23.3
		C589.5,396.4,562.1,399.8,552.4,398.2z M654,450.7c0,1.7,0.1,3.4,0.2,5l-14.5-26.9c3.2-1.1,5.8-2.1,7.7-2.9
		c3.7-1.6,7.4-2.3,11.1-2.7C655.8,431.9,654.1,441.2,654,450.7z M676.4,366.3c-9.1,5-23.8,19.7-23.8,19.7s-14.6,2.7-32.9,5.7
		l-16.4-30.4c0.5-1.5,1-3.5,1.3-6.4c0.2-1.7-0.2-3.5-0.7-5.4c7.2-1.6,14.3-3.1,21.5-4.7c6-1.3,12-2.6,18-3.9
		c5.8-1.3,12-3.8,17.8-1.4c2.2,0.9,4.3,2.3,6.1,3.8c0,0,0.1,0.1,0.1,0.1c6.9,5.6,11.3,12.7,12.7,21.4
		C678.9,365.1,677.8,365.6,676.4,366.3z"/>
</g>
</svg>
